<svg width="24" height="24" viewBox="0 0 24 24" fill="none" xmlns="http://www.w3.org/2000/svg">
<path d="M14.4003 1.97647V3.38824C18.4945 4.37647 21.318 8.04706 21.318 12.2824C21.318 17.3647 17.0827 21.6 12.0003 21.6C6.91799 21.6 2.82387 17.5059 2.82387 12.4235C2.82387 8.18824 5.6474 4.51765 9.74152 3.52941V2.11765C4.94152 2.96471 1.41211 7.34118 1.41211 12.4235C1.41211 18.3529 6.21211 23.1529 12.1415 23.1529C18.0709 23.1529 22.8709 18.3529 22.8709 12.4235C22.8709 7.34118 19.3415 2.96471 14.4003 1.97647Z" fill="#F00000"/>
<path d="M12.7067 0H11.2949V5.64706H12.7067V0Z" fill="#F00000"/>
</svg>
