<svg width="44" height="43" viewBox="0 0 44 43" fill="none" xmlns="http://www.w3.org/2000/svg">
<path d="M5.29682 22.76C5.54689 23.5582 5.91062 24.5617 6.38801 25.7589C6.86541 26.9562 7.411 27.8685 8.0248 28.4956C8.63859 29.1228 9.29786 29.4421 10.0026 29.4421C11.1279 29.4421 11.6848 28.4842 11.6848 26.5685C11.6848 26.0098 11.628 24.3222 11.5143 21.5057C11.4007 18.6892 11.3438 16.3288 11.3438 14.4132V5.14267C11.3438 4.01379 11.0597 3.01034 10.5027 2.10952C9.95712 1.2087 9.18419 0.535932 8.1953 0.0798197V0H21.0623V0.0798197C20.1075 0.524529 19.3573 1.2087 18.7889 2.10952C18.232 3.01034 17.9478 4.02519 17.9478 5.14267V19.6927C17.9478 21.3575 17.7546 22.817 17.3568 24.0827C16.9589 25.3484 16.4702 26.3405 15.8905 27.0589C15.3108 27.7772 14.5947 28.3588 13.7649 28.8149C12.9352 29.2596 12.1509 29.5675 11.412 29.7271C10.6732 29.8868 9.88892 29.9552 9.08189 29.9552C5.43322 29.9552 2.40971 28.8263 0 26.58L4.37613 19.7839H4.4557C4.76259 20.9698 5.04676 21.9618 5.29682 22.76Z" fill="white"/>
<path d="M44 22.4863H43.9204C42.2382 16.8648 39.5443 14.0483 35.8502 14.0483H30.9171V26.6598H32.5198C33.9519 26.6598 35.0659 26.2949 35.8615 25.5651C36.6572 24.8353 37.4415 23.581 38.1917 21.8136H38.2712V32.9541H38.1917C37.5438 30.9586 36.7936 29.5105 35.9411 28.6097C35.0886 27.7088 33.9406 27.2641 32.5084 27.2641H30.9171V37.8573C30.9171 38.9862 31.2012 39.9897 31.7582 40.8905C32.3152 41.7913 33.0767 42.4641 34.0315 42.9202V43H21.1986V42.9202C22.1762 42.4755 22.9491 41.7913 23.5061 40.8905C24.063 39.9897 24.3472 38.9748 24.3472 37.8573V18.6094C24.3472 17.4805 24.063 16.4771 23.5061 15.5762C22.9491 14.6754 22.1762 14.0027 21.1986 13.5465V13.4667H43.4089L44 22.4863Z" fill="white"/>
</svg>
