<svg width="34" height="34" viewBox="0 0 34 34" fill="none" xmlns="http://www.w3.org/2000/svg">
<g id="more_vert_24px">
<path id="icon/navigation/more_vert_24px" fill-rule="evenodd" clip-rule="evenodd" d="M17.0003 11.3333C18.5587 11.3333 19.8337 10.0583 19.8337 8.5C19.8337 6.94166 18.5587 5.66666 17.0003 5.66666C15.442 5.66666 14.167 6.94166 14.167 8.5C14.167 10.0583 15.442 11.3333 17.0003 11.3333ZM17.0003 14.1667C15.442 14.1667 14.167 15.4417 14.167 17C14.167 18.5583 15.442 19.8333 17.0003 19.8333C18.5587 19.8333 19.8337 18.5583 19.8337 17C19.8337 15.4417 18.5587 14.1667 17.0003 14.1667ZM14.167 25.5C14.167 23.9417 15.442 22.6667 17.0003 22.6667C18.5587 22.6667 19.8337 23.9417 19.8337 25.5C19.8337 27.0583 18.5587 28.3333 17.0003 28.3333C15.442 28.3333 14.167 27.0583 14.167 25.5Z" fill="#F00000"/>
</g>
</svg>
