<svg width="10" height="10" viewBox="0 0 10 10" fill="none" xmlns="http://www.w3.org/2000/svg">
<path fill-rule="evenodd" clip-rule="evenodd" d="M4.99967 0.333344C3.71051 0.333344 2.66634 1.37751 2.66634 2.66668C2.66634 3.95584 3.71051 5.00001 4.99967 5.00001C6.28884 5.00001 7.33301 3.95584 7.33301 2.66668C7.33301 1.37751 6.28884 0.333344 4.99967 0.333344ZM6.16634 2.66668C6.16634 2.02501 5.64134 1.50001 4.99967 1.50001C4.35801 1.50001 3.83301 2.02501 3.83301 2.66668C3.83301 3.30834 4.35801 3.83334 4.99967 3.83334C5.64134 3.83334 6.16634 3.30834 6.16634 2.66668ZM8.49967 7.91668C8.38301 7.50251 6.57467 6.75001 4.99967 6.75001C3.42467 6.75001 1.61634 7.50251 1.49967 7.92251V8.50001H8.49967V7.91668ZM0.333008 7.91668C0.333008 6.36501 3.44217 5.58334 4.99967 5.58334C6.55717 5.58334 9.66634 6.36501 9.66634 7.91668V9.66668H0.333008V7.91668Z" fill="#000000"/>
</svg>
