<svg width="14" height="14" viewBox="0 0 14 14" fill="none" xmlns="http://www.w3.org/2000/svg">
<path fill-rule="evenodd" clip-rule="evenodd" d="M6.99967 2.33334C5.71051 2.33334 4.66634 3.37751 4.66634 4.66668C4.66634 5.95584 5.71051 7.00001 6.99967 7.00001C8.28884 7.00001 9.33301 5.95584 9.33301 4.66668C9.33301 3.37751 8.28884 2.33334 6.99967 2.33334ZM8.16634 4.66668C8.16634 4.02501 7.64134 3.50001 6.99967 3.50001C6.35801 3.50001 5.83301 4.02501 5.83301 4.66668C5.83301 5.30834 6.35801 5.83334 6.99967 5.83334C7.64134 5.83334 8.16634 5.30834 8.16634 4.66668ZM10.4997 9.91668C10.383 9.50251 8.57467 8.75001 6.99967 8.75001C5.42467 8.75001 3.61634 9.50251 3.49967 9.92251V10.5H10.4997V9.91668ZM2.33301 9.91668C2.33301 8.36501 5.44217 7.58334 6.99967 7.58334C8.55717 7.58334 11.6663 8.36501 11.6663 9.91668V11.6667H2.33301V9.91668Z" fill="white"/>
</svg>
